<svg class="svg-logo" xml:space="preserve" version="1.0" shape-rendering="geometricPrecision" text-rendering="geometricPrecision" image-rendering="optimizeQuality" fill-rule="evenodd" clip-rule="evenodd"
viewBox="0 0 35 35"> 
  <path fill="white" d="M0.04 17.62l0 0c0,-9.63 7.87,-17.5 17.5,-17.5l0 0c9.62,0 17.5,7.87 17.5,17.5l0 0c0,9.62 -7.88,17.5 -17.5,17.5l0 0c-9.63,0 -17.5,-7.88 -17.5,-17.5zm28.79 -11.46l0 3.5 -1.93 0 0 -1.56 -18.8 0 0 18.8 18.8 0 0 -1.57 1.93 0 0 3.51 -22.66 0 0 -22.68 22.66 0zm-19.58 4.23l0 2.81 3.48 0 0 11.29 2.84 0 0 -11.29 3.46 0 0 -2.81 -9.78 0zm21.35 12.11l-2.02 -2.03c-0.84,0.84 -1.86,1.26 -3.05,1.26 -1.18,0 -2.19,-0.41 -3.02,-1.25 -0.84,-0.84 -1.26,-1.85 -1.26,-3.03 0,-1.18 0.42,-2.19 1.26,-3.04 0.82,-0.84 1.83,-1.26 3.02,-1.26 1.18,0 2.19,0.42 3.04,1.26l2.02 -2.02c-1.17,-1.12 -2.9,-2.09 -5.07,-2.09l0 -0.03c-1.95,0 -3.64,0.7 -5.04,2.1 -1.4,1.41 -2.1,3.1 -2.1,5.07 0,1.97 0.7,3.66 2.1,5.06 1.39,1.38 3.07,2.07 5.04,2.08 2.2,0 3.92,-0.94 5.08,-2.08z"/>
</svg>